<svg width="32" height="32" viewBox="0 0 32 32" fill="none" xmlns="http://www.w3.org/2000/svg">
<path d="M32 16C32 24.8366 24.8366 32 16 32C7.16344 32 0 24.8366 0 16C0 7.16344 7.16344 0 16 0C24.8366 0 32 7.16344 32 16Z" fill="url(#paint0_linear_98_115)"/>
<path d="M25.7714 14.019C26.6297 18.4823 26.2798 20.7893 24.417 24.6131V26.6478C24.821 27.5283 25.1308 28.2727 25.3717 28.9554C22.5157 30.9628 20.561 31.7283 16.0008 32.0001L21.9663 8.19577C24.6798 6.49035 26.384 5.21398 26.9322 5.3543C27.4804 5.49462 27.4967 8.10244 26.3518 10.5461V12.3703C26.2555 13.0168 26.1112 13.3774 25.7714 14.019Z" fill="url(#paint1_linear_98_115)"/>
<path d="M6.30621 14.019C5.47458 18.4823 5.8136 20.7893 7.61838 24.6131V26.6478C7.22701 27.5283 6.92687 28.2727 6.69345 28.9554C9.46056 30.9628 11.5177 31.7283 15.936 32.0001L21.9281 8.19577C17.219 6.94425 14.6099 7.05303 9.9928 8.19577C7.36382 6.49035 5.71262 5.21398 5.18148 5.3543C4.65035 5.49462 4.6346 8.10244 5.74384 10.5461V12.3703C5.83711 13.0168 5.97697 13.3774 6.30621 14.019Z" fill="url(#paint2_linear_98_115)"/>
<path d="M19.2388 11.9606C19.957 11.5549 20.6044 11.5943 21.7785 11.6855L22.3691 11.2041C22.0408 11.8532 21.5115 12.7234 21.4832 12.8547C21.4549 12.986 21.3256 13.8698 20.302 14.574C19.8295 14.7803 19.4041 14.8786 18.7073 14.574C18.6482 14.6673 18.511 14.7444 18.1166 14.9179L18.2938 13.6112C18.5104 12.929 18.6172 12.543 19.2388 11.9606Z" fill="black"/>
<path d="M12.5031 12.0299C11.7583 11.6243 11.0869 11.6636 9.86934 11.7549L9.25684 11.2734C9.59735 11.9225 10.1463 12.7927 10.1756 12.924C10.2049 13.0553 10.339 13.9392 11.4006 14.6433C11.8906 14.8497 12.3317 14.948 13.0543 14.6433C13.1155 14.7366 13.2579 14.8138 13.6668 14.9872L13.4831 13.6805C13.2585 12.9984 13.1478 12.6123 12.5031 12.0299Z" fill="black"/>
<path d="M14.4672 17.4483C14.7445 17.649 14.8318 17.7519 15.5887 17.871V18.4347C14.9757 18.8398 14.6411 19.0356 14.218 18.787L12.9096 17.9415C12.3178 17.9044 12.1748 18.1656 11.7881 18.4347C12.2055 18.6875 12.4157 18.8285 12.4111 19.0688V21.253C12.9986 22.9785 14.2803 24.776 15.9626 24.7055C17.6448 24.6351 18.6883 23.1931 19.2647 21.253L19.3894 18.2938L19.7632 17.871C19.0738 18.0405 18.6551 18.0305 18.0809 18.5756C17.2848 19.143 16.8821 18.8108 16.1495 18.4347V17.9415C16.6452 17.8113 17.5898 17.4858 17.4579 17.4483C17.3259 17.4107 15.9048 15.9766 15.9002 16.0391C15.8956 16.1016 15.1425 16.7006 14.4672 17.4483Z" fill="black"/>
<defs>
<linearGradient id="paint0_linear_98_115" x1="16" y1="0" x2="16" y2="32" gradientUnits="userSpaceOnUse">
<stop stop-color="#16476A"/>
<stop offset="0.783654" stop-color="#030C1F"/>
</linearGradient>
<linearGradient id="paint1_linear_98_115" x1="21.6479" y1="5.34375" x2="21.6479" y2="32.0001" gradientUnits="userSpaceOnUse">
<stop stop-color="#CE120E"/>
<stop offset="0.471154" stop-color="#680907"/>
</linearGradient>
<linearGradient id="paint2_linear_98_115" x1="13.3791" y1="5.34375" x2="13.3791" y2="32.0001" gradientUnits="userSpaceOnUse">
<stop offset="0.528846" stop-color="white"/>
<stop offset="1" stop-color="#999999"/>
</linearGradient>
</defs>
</svg>
